<svg width="869" height="107" viewBox="0 0 869 107" fill="none" xmlns="http://www.w3.org/2000/svg">
<path d="M38.4735 106.024C36.0842 106.024 34.2495 105.341 32.9695 103.976C31.6895 102.611 31.0495 100.733 31.0495 98.344V21.416C31.0495 18.9413 31.7322 17.064 33.0975 15.784C34.4628 14.4187 36.3402 13.736 38.7295 13.736C40.8628 13.736 42.5268 14.1627 43.7215 15.016C45.0015 15.784 46.1535 17.1493 47.1775 19.112L78.7935 77.608H74.6975L106.314 19.112C107.338 17.1493 108.447 15.784 109.642 15.016C110.836 14.1627 112.5 13.736 114.634 13.736C117.023 13.736 118.858 14.4187 120.138 15.784C121.418 17.064 122.058 18.9413 122.058 21.416V98.344C122.058 100.733 121.418 102.611 120.138 103.976C118.943 105.341 117.108 106.024 114.634 106.024C112.244 106.024 110.41 105.341 109.13 103.976C107.85 102.611 107.21 100.733 107.21 98.344V39.08H110.026L83.1455 88.104C82.2922 89.5547 81.3962 90.6213 80.4575 91.304C79.5188 91.9867 78.2388 92.328 76.6175 92.328C74.9962 92.328 73.6735 91.9867 72.6495 91.304C71.6255 90.536 70.7295 89.4693 69.9615 88.104L42.8255 38.952H45.8975V98.344C45.8975 100.733 45.2575 102.611 43.9775 103.976C42.7828 105.341 40.9482 106.024 38.4735 106.024ZM171.231 106.28C164.148 106.28 158.047 104.957 152.927 102.312C147.807 99.6667 143.839 95.912 141.023 91.048C138.292 86.184 136.927 80.424 136.927 73.768C136.927 67.2827 138.249 61.608 140.895 56.744C143.625 51.88 147.337 48.0827 152.031 45.352C156.809 42.536 162.228 41.128 168.287 41.128C172.724 41.128 176.692 41.8533 180.191 43.304C183.775 44.7547 186.804 46.8453 189.279 49.576C191.839 52.3067 193.759 55.6347 195.039 59.56C196.404 63.4 197.087 67.752 197.087 72.616C197.087 74.152 196.532 75.3467 195.423 76.2C194.399 76.968 192.905 77.352 190.943 77.352H149.855V68.136H185.823L183.775 70.056C183.775 66.1307 183.177 62.8453 181.983 60.2C180.873 57.5547 179.209 55.5493 176.991 54.184C174.857 52.7333 172.169 52.008 168.927 52.008C165.343 52.008 162.271 52.8613 159.711 54.568C157.236 56.1893 155.316 58.536 153.951 61.608C152.671 64.5947 152.031 68.1787 152.031 72.36V73.256C152.031 80.2533 153.652 85.5013 156.895 89C160.223 92.4133 165.087 94.12 171.487 94.12C173.705 94.12 176.18 93.864 178.911 93.352C181.727 92.7547 184.372 91.7733 186.847 90.408C188.639 89.384 190.217 88.9573 191.583 89.128C192.948 89.2133 194.015 89.6827 194.783 90.536C195.636 91.3893 196.148 92.456 196.319 93.736C196.489 94.9307 196.233 96.168 195.551 97.448C194.953 98.728 193.887 99.8373 192.351 100.776C189.364 102.653 185.908 104.061 181.983 105C178.143 105.853 174.559 106.28 171.231 106.28ZM238.302 106.28C231.816 106.28 226.184 104.957 221.406 102.312C216.627 99.6667 212.915 95.912 210.27 91.048C207.624 86.0987 206.302 80.296 206.302 73.64C206.302 68.6053 207.027 64.1253 208.478 60.2C210.014 56.1893 212.19 52.776 215.006 49.96C217.822 47.0587 221.192 44.8827 225.118 43.432C229.043 41.896 233.438 41.128 238.302 41.128C244.787 41.128 250.419 42.4507 255.198 45.096C259.976 47.7413 263.688 51.496 266.334 56.36C268.979 61.224 270.302 66.984 270.302 73.64C270.302 78.6747 269.534 83.1973 267.998 87.208C266.547 91.2187 264.414 94.6747 261.598 97.576C258.782 100.392 255.411 102.568 251.486 104.104C247.56 105.555 243.166 106.28 238.302 106.28ZM238.302 94.12C241.459 94.12 244.232 93.352 246.622 91.816C249.011 90.28 250.846 88.0187 252.126 85.032C253.491 81.96 254.174 78.1627 254.174 73.64C254.174 66.8133 252.723 61.736 249.822 58.408C246.92 54.9947 243.08 53.288 238.302 53.288C235.144 53.288 232.371 54.056 229.982 55.592C227.592 57.0427 225.715 59.304 224.35 62.376C223.07 65.3627 222.43 69.1173 222.43 73.64C222.43 80.3813 223.88 85.5013 226.782 89C229.683 92.4133 233.523 94.12 238.302 94.12ZM306.45 106.024C304.316 106.024 302.482 105.512 300.946 104.488C299.41 103.379 298.172 101.672 297.234 99.368L278.674 52.008C277.906 49.96 277.65 48.168 277.906 46.632C278.247 45.0107 279.058 43.7307 280.338 42.792C281.618 41.8533 283.324 41.384 285.458 41.384C287.335 41.384 288.871 41.8533 290.066 42.792C291.26 43.6453 292.284 45.3093 293.138 47.784L308.626 90.408H305.682L321.682 46.76C322.364 44.8827 323.26 43.5173 324.37 42.664C325.564 41.8107 327.1 41.384 328.978 41.384C330.855 41.384 332.391 41.8533 333.586 42.792C334.78 43.6453 335.676 44.968 336.274 46.76L352.018 90.408H349.33L364.946 47.4C365.799 45.096 366.866 43.5173 368.146 42.664C369.511 41.8107 371.004 41.384 372.626 41.384C374.674 41.384 376.252 41.896 377.362 42.92C378.471 43.944 379.111 45.2667 379.282 46.888C379.452 48.424 379.154 50.1307 378.386 52.008L359.954 99.368C359.1 101.587 357.863 103.251 356.242 104.36C354.706 105.469 352.871 106.024 350.738 106.024C348.604 106.024 346.727 105.469 345.106 104.36C343.57 103.251 342.375 101.587 341.521 99.368L324.754 54.952H332.05L315.666 99.24C314.812 101.544 313.618 103.251 312.082 104.36C310.546 105.469 308.668 106.024 306.45 106.024ZM424.663 106.024C422.359 106.024 420.481 105.469 419.031 104.36C417.665 103.251 416.556 101.501 415.703 99.112L388.951 23.464C388.012 20.7333 388.183 18.4293 389.463 16.552C390.828 14.6747 393.089 13.736 396.247 13.736C398.551 13.736 400.343 14.2907 401.623 15.4C402.903 16.424 403.927 18.088 404.695 20.392L427.735 88.744H422.615L446.679 20.52C447.532 18.216 448.599 16.5093 449.879 15.4C451.159 14.2907 452.823 13.736 454.871 13.736C456.919 13.736 458.54 14.2907 459.735 15.4C460.929 16.5093 461.953 18.2587 462.807 20.648L486.103 88.744H481.623L505.047 20.392C505.815 18.1733 506.839 16.5093 508.119 15.4C509.399 14.2907 511.148 13.736 513.367 13.736C516.097 13.736 518.103 14.6747 519.383 16.552C520.663 18.4293 520.833 20.7333 519.895 23.464L492.887 99.24C492.033 101.544 490.924 103.251 489.559 104.36C488.193 105.469 486.359 106.024 484.055 106.024C481.751 106.024 479.916 105.469 478.551 104.36C477.185 103.251 476.076 101.501 475.223 99.112L452.951 35.624H455.895L433.367 99.24C432.513 101.544 431.404 103.251 430.039 104.36C428.759 105.469 426.967 106.024 424.663 106.024ZM554.427 106.28C547.941 106.28 542.309 104.957 537.531 102.312C532.752 99.6667 529.04 95.912 526.395 91.048C523.749 86.0987 522.427 80.296 522.427 73.64C522.427 68.6053 523.152 64.1253 524.603 60.2C526.139 56.1893 528.315 52.776 531.131 49.96C533.947 47.0587 537.317 44.8827 541.243 43.432C545.168 41.896 549.563 41.128 554.427 41.128C560.912 41.128 566.544 42.4507 571.323 45.096C576.101 47.7413 579.813 51.496 582.459 56.36C585.104 61.224 586.427 66.984 586.427 73.64C586.427 78.6747 585.659 83.1973 584.123 87.208C582.672 91.2187 580.539 94.6747 577.723 97.576C574.907 100.392 571.536 102.568 567.611 104.104C563.685 105.555 559.291 106.28 554.427 106.28ZM554.427 94.12C557.584 94.12 560.357 93.352 562.747 91.816C565.136 90.28 566.971 88.0187 568.251 85.032C569.616 81.96 570.299 78.1627 570.299 73.64C570.299 66.8133 568.848 61.736 565.947 58.408C563.045 54.9947 559.205 53.288 554.427 53.288C551.269 53.288 548.496 54.056 546.107 55.592C543.717 57.0427 541.84 59.304 540.475 62.376C539.195 65.3627 538.555 69.1173 538.555 73.64C538.555 80.3813 540.005 85.5013 542.907 89C545.808 92.4133 549.648 94.12 554.427 94.12ZM628.177 106.28C621.691 106.28 616.059 104.957 611.281 102.312C606.502 99.6667 602.79 95.912 600.145 91.048C597.499 86.0987 596.177 80.296 596.177 73.64C596.177 68.6053 596.902 64.1253 598.353 60.2C599.889 56.1893 602.065 52.776 604.881 49.96C607.697 47.0587 611.067 44.8827 614.993 43.432C618.918 41.896 623.313 41.128 628.177 41.128C634.662 41.128 640.294 42.4507 645.073 45.096C649.851 47.7413 653.563 51.496 656.209 56.36C658.854 61.224 660.177 66.984 660.177 73.64C660.177 78.6747 659.409 83.1973 657.873 87.208C656.422 91.2187 654.289 94.6747 651.473 97.576C648.657 100.392 645.286 102.568 641.361 104.104C637.435 105.555 633.041 106.28 628.177 106.28ZM628.177 94.12C631.334 94.12 634.107 93.352 636.497 91.816C638.886 90.28 640.721 88.0187 642.001 85.032C643.366 81.96 644.049 78.1627 644.049 73.64C644.049 66.8133 642.598 61.736 639.697 58.408C636.795 54.9947 632.955 53.288 628.177 53.288C625.019 53.288 622.246 54.056 619.857 55.592C617.467 57.0427 615.59 59.304 614.225 62.376C612.945 65.3627 612.305 69.1173 612.305 73.64C612.305 80.3813 613.755 85.5013 616.657 89C619.558 92.4133 623.398 94.12 628.177 94.12ZM685.046 106.024C682.486 106.024 680.48 105.341 679.03 103.976C677.664 102.525 676.982 100.477 676.982 97.832V54.44H671.094C669.046 54.44 667.467 53.928 666.358 52.904C665.248 51.7947 664.694 50.3013 664.694 48.424C664.694 46.4613 665.248 44.968 666.358 43.944C667.467 42.92 669.046 42.408 671.094 42.408H681.59L676.982 46.632V42.28C676.982 33.4907 679.2 26.92 683.638 22.568C688.075 18.1307 694.475 15.528 702.838 14.76L707.19 14.376C708.896 14.2053 710.262 14.504 711.286 15.272C712.31 15.9547 712.992 16.8933 713.334 18.088C713.675 19.1973 713.718 20.3493 713.462 21.544C713.206 22.7387 712.651 23.8053 711.798 24.744C711.03 25.5973 710.006 26.0667 708.726 26.152L706.934 26.28C702.07 26.6213 698.528 27.8587 696.31 29.992C694.091 32.1253 692.982 35.368 692.982 39.72V44.456L690.934 42.408H703.862C705.91 42.408 707.488 42.92 708.598 43.944C709.707 44.968 710.262 46.4613 710.262 48.424C710.262 50.3013 709.707 51.7947 708.598 52.904C707.488 53.928 705.91 54.44 703.862 54.44H692.982V97.832C692.982 103.293 690.336 106.024 685.046 106.024Z" fill="url(#paint0_linear_5_17)"/>
<path d="M788.315 0.267589C795.203 -0.74049 802.518 6.77507 804.643 17.1633C806.768 27.4931 802.994 36.7269 796.107 37.7934C789.278 38.8597 781.904 31.3443 779.72 20.9562C777.537 10.6265 781.428 1.39244 788.315 0.267589ZM830.062 0.173707C837.013 1.26744 840.887 10.484 838.867 20.8232C836.671 31.2211 829.39 38.7695 822.498 37.734C815.547 36.6987 811.731 27.482 813.869 17.1426C815.947 6.74487 823.229 -0.803516 830.062 0.173707ZM757.138 27.196C763.788 24.3201 772.85 29.4962 777.599 38.5356C782.058 47.7509 780.561 57.4466 773.97 60.3224C767.379 63.1982 758.375 58.0804 753.742 48.9239C749.109 39.7675 750.722 30.0131 757.138 27.196ZM862.236 26.9597C868.665 29.7479 870.321 39.4949 865.729 48.6721C861.137 57.8493 852.157 63.0076 845.553 60.1614C838.949 57.3153 837.409 47.6264 841.826 38.3912C846.535 29.3305 855.573 24.1137 862.236 26.9597ZM852.626 89.9233C852.872 95.4111 848.682 101.493 843.666 103.781C833.225 108.593 820.825 98.6945 809.206 98.7207C797.587 98.7468 785.115 109.109 774.827 103.936C768.982 101.088 764.936 93.5069 765.681 87.1994C766.712 78.4973 777.153 73.8028 783.328 67.4247C791.542 59.1735 797.346 43.6877 809.082 43.6613C820.759 43.6351 826.983 58.8603 834.884 67.3087C841.381 74.4174 852.196 80.407 852.626 89.9233Z" fill="#FF6B6B"/>
<defs>
<linearGradient id="paint0_linear_5_17" x1="732" y1="62.5" x2="0" y2="62.5" gradientUnits="userSpaceOnUse">
<stop offset="0.34" stop-color="#4ECDC4"/>
<stop offset="0.78" stop-color="#FF6B6B"/>
</linearGradient>
</defs>
</svg>
