<svg width="966" height="868" viewBox="0 0 966 868" fill="none" xmlns="http://www.w3.org/2000/svg">
<path d="M307.154 2.29592C363.847 -6.00194 424.063 55.8613 441.557 141.37C459.05 226.399 427.981 302.405 371.289 311.184C315.078 319.961 254.382 258.099 236.407 172.591C218.433 87.5634 250.463 11.555 307.154 2.29592ZM650.788 1.52314C708.001 10.5261 739.892 86.3907 723.262 171.496C705.191 257.085 645.255 319.219 588.524 310.695C531.312 302.173 499.902 226.307 517.493 141.2C534.602 55.6127 594.539 -6.52073 650.788 1.52314ZM50.5263 223.954C105.263 200.281 179.853 242.887 218.95 317.294C255.647 393.147 243.33 472.956 189.074 496.628C134.819 520.3 60.7102 478.173 22.5725 402.803C-15.5652 327.433 -2.28866 247.142 50.5263 223.954ZM915.619 222.008C968.538 244.958 982.176 325.189 944.377 400.73C906.579 476.271 832.661 518.731 778.299 495.303C723.937 471.876 711.262 392.123 747.618 316.105C786.379 241.523 860.777 198.582 915.619 222.008ZM836.523 740.283C838.547 785.456 804.056 835.517 762.766 854.354C676.826 893.957 574.753 812.483 479.112 812.698C383.471 812.913 280.813 898.212 196.13 855.628C148.016 832.186 114.714 769.782 120.845 717.862C129.335 646.232 215.277 607.59 266.103 555.089C333.717 487.171 381.491 359.702 478.093 359.485C574.215 359.269 625.441 484.593 690.48 554.135C743.959 612.649 832.983 661.952 836.523 740.283Z" fill="#FF6B6B"/>
</svg>
